# xmcd
#
# Track frame offsets:
#	150
#	26785
#	55443
#	97822
#	125471
#	153538
#	201614
#	219068
#	248912
#	281189
#
# Disc length: 4015 seconds
#
# Revision: 1
# Processed by: cddbd v1.5.2PL0 Copyright (c) Steve Scherf et al.
# Submitted via: audiograbber 1.83.01
#
DISCID=940fad0a
DTITLE=Grateful Dead - 76-06-19 Capitol Theatre, Passaic NJ
DYEAR=1900
DGENRE=
TTITLE0=Might As Well
TTITLE1=Samson and Delilah
TTITLE2=High Time
TTITLE3=Let It Grow
TTITLE4=Drums > Let It Grow
TTITLE5=Dancing In The Streets
TTITLE6=Cosmic Charlie
TTITLE7=Around and Around
TTITLE8=Going Down The Road Feeling Bad
TTITLE9=One More Saturday Night
EXTD=
EXTT0=
EXTT1=
EXTT2=
EXTT3=
EXTT4=
EXTT5=
EXTT6=
EXTT7=
EXTT8=
EXTT9=
PLAYORDER=
